<svg id="Layer_1" data-name="Layer 1" xmlns="http://www.w3.org/2000/svg" viewBox="0 0 319.34 100.71"><defs><style>.cls-1,.cls-2,.cls-3,.cls-5,.cls-9{fill:none;}.cls-1,.cls-10,.cls-5,.cls-6,.cls-8,.cls-9{stroke:#000;}.cls-1,.cls-10,.cls-2,.cls-3,.cls-5,.cls-6,.cls-8,.cls-9{stroke-miterlimit:10;}.cls-1,.cls-2{stroke-width:4px;}.cls-2{stroke:#0c1d40;}.cls-3{stroke:#fff;}.cls-3,.cls-5{stroke-width:7px;}.cls-4{fill:#fff;}.cls-6{font-size:80px;stroke-width:1.5px;font-family:ConcourseC3, Concourse C3;}.cls-10,.cls-6{fill:#f2f2f2;}.cls-7{font-size:56px;}.cls-10,.cls-8{stroke-width:2px;}.cls-9{stroke-linecap:round;stroke-width:0.75px;stroke-dasharray:2.02 2.02;}</style></defs><path class="cls-1" d="M128.6,81.64c4-12.59,6.2-15.26,7.49-15.13s2,2.47,3.53,7.2c2,6.14,2.3,10,4.43,10.34,1.31.24,2-1.07,3.46-.82,2.73.45,2.83,5.17,4.36,5.32,2.64.25,5.07-13.55,8.51-13.58s5.29,13.67,7.89,13.58c3.45-.12,4.36-24.45,7.26-24.51,2.62-.06,3.33,20.1,9.35,20.81,2.55.29,5.09-3.08,6.69-5.48" transform="translate(0 10.16)"/><path class="cls-1" d="M179.57,31H293.39c1.25,0,7.22.25,11.82,4.16a13.17,13.17,0,0,1,4.9,10V66.05c0,7.85-7.48,14.21-16.72,14.21H189.91" transform="translate(0 10.16)"/><path class="cls-1" d="M117.51,31h16.38" transform="translate(0 10.16)"/><path class="cls-1" d="M80.51,31H97.15" transform="translate(0 10.16)"/><path class="cls-1" d="M130.51,80.26H26.08A19,19,0,0,1,14.25,76.1a13.19,13.19,0,0,1-4.9-10V45.24C9.35,37.4,16.84,31,26.08,31h7.64" transform="translate(0 10.16)"/><path class="cls-2" d="M310.11,62.73" transform="translate(0 10.16)"/><line class="cls-3" x1="9.42" y1="69.84" x2="9.42" y2="70.21"/><polygon class="cls-4" points="0 72.61 9.41 56.28 18.85 72.59 0 72.61"/><line class="cls-5" x1="9.42" y1="71.9" x2="9.42" y2="72.18"/><polygon points="0 74.67 9.41 58.34 18.85 74.65 0 74.67"/><text class="cls-6" transform="translate(23.29 67.95)">Q<tspan class="cls-7" x="66.4" y="0">u</tspan><tspan x="101.68" y="0">OCS</tspan></text><circle class="cls-8" cx="159.01" cy="41.06" r="6"/><path class="cls-9" d="M135.07,30.8c0-14.17,10.41-25.67,23.25-25.67,30.84,1.35,30.83,50,0,51.35-12.84,0-23.25-11.5-23.25-25.68Z" transform="translate(0 10.16)"/><circle class="cls-10" cx="173.57" cy="21.69" r="8"/><line class="cls-3" x1="309.92" y1="64.8" x2="309.92" y2="64.44"/><polygon class="cls-4" points="319.35 62.04 309.93 78.37 300.5 62.05 319.35 62.04"/><line class="cls-5" x1="309.92" y1="62.75" x2="309.92" y2="62.47"/><polygon points="319.34 59.98 309.93 76.31 300.5 60 319.34 59.98"/></svg>